<svg xmlns="http://www.w3.org/2000/svg" xmlns:xlink="http://www.w3.org/1999/xlink" width="378pt" height="50pt" viewBox="0.00 0.00 378.00 50.00">
<g id="graph0" class="graph" transform="scale(1 1) rotate(0) translate(4 46)">
<title>c_model</title>
<polygon fill="white" stroke="transparent" points="-4,4 -4,-46 374,-46 374,4 -4,4"/>
<!-- 0 -->
<g id="node1" class="node">
<title>0</title>
<polygon fill="lightyellow" stroke="transparent" points="88,-37 0,-37 0,-5 88,-5 88,-37"/>
<polygon fill="none" stroke="black" points="0,-5 0,-37 63,-37 63,-5 0,-5"/>
<text text-anchor="start" x="5" y="-24" font-family="Linux libertine" font-size="10.00">input-tensor</text>
<text text-anchor="start" x="14.5" y="-13" font-family="Linux libertine" font-size="10.00">depth:0</text>
<polygon fill="none" stroke="black" points="63,-5 63,-37 88,-37 88,-5 63,-5"/>
<text text-anchor="start" x="68" y="-18.5" font-family="Linux libertine" font-size="10.00">(4,)</text>
</g>
<!-- 1 -->
<g id="node2" class="node">
<title>1</title>
<polygon fill="#c1ffc1" stroke="transparent" points="240,-42 124,-42 124,0 240,0 240,-42"/>
<polygon fill="none" stroke="black" points="124,0 124,-42 168,-42 168,0 124,0"/>
<text text-anchor="start" x="132" y="-24" font-family="Linux libertine" font-size="10.00">Linear</text>
<text text-anchor="start" x="129" y="-13" font-family="Linux libertine" font-size="10.00">depth:1</text>
<polygon fill="none" stroke="black" points="168,-21 168,-42 212,-42 212,-21 168,-21"/>
<text text-anchor="start" x="177.5" y="-29" font-family="Linux libertine" font-size="10.00">input:</text>
<polygon fill="none" stroke="black" points="212,-21 212,-42 240,-42 240,-21 212,-21"/>
<text text-anchor="start" x="217" y="-29" font-family="Linux libertine" font-size="10.00">(4,) </text>
<polygon fill="none" stroke="black" points="168,0 168,-21 212,-21 212,0 168,0"/>
<text text-anchor="start" x="173" y="-8" font-family="Linux libertine" font-size="10.00">output: </text>
<polygon fill="none" stroke="black" points="212,0 212,-21 240,-21 240,0 212,0"/>
<text text-anchor="start" x="217" y="-8" font-family="Linux libertine" font-size="10.00">(6,) </text>
</g>
<!-- 0&#45;&gt;1 -->
<g id="edge1" class="edge">
<title>0-&gt;1</title>
<path fill="none" stroke="black" d="M88.03,-21C96.2,-21 104.92,-21 113.63,-21"/>
<polygon fill="black" stroke="black" points="113.82,-24.5 123.82,-21 113.82,-17.5 113.82,-24.5"/>
</g>
<!-- 2 -->
<g id="node3" class="node">
<title>2</title>
<polygon fill="lightyellow" stroke="transparent" points="370,-37 276,-37 276,-5 370,-5 370,-37"/>
<polygon fill="none" stroke="black" points="276,-5 276,-37 345,-37 345,-5 276,-5"/>
<text text-anchor="start" x="281" y="-24" font-family="Linux libertine" font-size="10.00">output-tensor</text>
<text text-anchor="start" x="293.5" y="-13" font-family="Linux libertine" font-size="10.00">depth:0</text>
<polygon fill="none" stroke="black" points="345,-5 345,-37 370,-37 370,-5 345,-5"/>
<text text-anchor="start" x="350" y="-18.5" font-family="Linux libertine" font-size="10.00">(6,)</text>
</g>
<!-- 1&#45;&gt;2 -->
<g id="edge2" class="edge">
<title>1-&gt;2</title>
<path fill="none" stroke="black" d="M240.34,-21C248.74,-21 257.38,-21 265.76,-21"/>
<polygon fill="black" stroke="black" points="265.81,-24.5 275.81,-21 265.81,-17.5 265.81,-24.5"/>
</g>
</g>
</svg>